# Blender 3.6.2
# www.blender.org
mtllib surface.mtl
o Plane
v -0.783208 0.000000 0.783208
v 0.783208 0.000000 0.783208
v -0.783208 0.000000 -0.783208
v 0.783208 0.000000 -0.783208
v -1.182567 0.184027 2.105235
v 0.383848 0.184027 2.105235
v -0.799339 0.526246 -2.407694
v 0.767077 0.526246 -2.407694
vn -0.0000 1.0000 -0.0000
vn -0.0000 0.9905 -0.1379
vn -0.0000 0.9513 0.3082
vt 1.000000 0.000000
vt 0.000000 1.000000
vt 0.000000 0.000000
vt 1.000000 1.000000
s 0
f 2/1/1 3/2/1 1/3/1
f 1/3/2 6/1/2 2/1/2
f 3/2/3 8/4/3 7/2/3
f 2/1/1 4/4/1 3/2/1
f 1/3/2 5/3/2 6/1/2
f 3/2/3 4/4/3 8/4/3
